<?xml version="1.0" encoding="utf-8"?>
<!-- Generator: Adobe Illustrator 22.1.0, SVG Export Plug-In . SVG Version: 6.00 Build 0)  -->
<svg version="1.1" id="Layer_1" xmlns="http://www.w3.org/2000/svg" xmlns:xlink="http://www.w3.org/1999/xlink" x="0px" y="0px"
	 viewBox="0 0 1200 1920" style="enable-background:new 0 0 1200 1920;" xml:space="preserve">
<style type="text/css">
	.st0{fill:none;}
	.st1{opacity:0.5;fill:#2E3192;}
	.st2{fill:#2E3192;}
</style>
<path class="st0" d="M749.7,188.2c-64.4-27.4-135.8-31.9-203.7-48.8C451.7,115.9,364.5,66.6,293.8,0H0v1480.4
	c13.2,13.8,26.8,32.3,35.9,40.4c20.8,18.5,43,35.4,66,51.1c94,63.9,201.4,105.5,308.7,141.4c93.1,31.1,187.8,59.2,285.2,71.1
	c97.4,11.9,198.2,7.2,290.6-25.7c82.8-29.5,157.3-81.8,213.6-149.1V455.2c-90.1-26.3-175.5-68.9-250.5-125.4
	C884.1,280.6,825.1,220.2,749.7,188.2z"/>
<path class="st1" d="M1200,365.2v70c-90.1-26.3-175.5-68.9-250.5-125.4c-65.4-49.3-124.4-109.6-199.8-141.7
	c-64.4-27.4-135.8-31.9-203.7-48.8C461.4,98.3,382.5,56.5,316.2,0h102.5c40.2,21.6,83,38.3,127.3,49.4
	c67.9,16.9,139.3,21.4,203.7,48.8c75.4,32.1,134.3,92.4,199.8,141.7C1024.5,296.3,1109.9,338.9,1200,365.2z"/>
<path class="st1" d="M986.4,1758.7c-92.4,32.9-193.2,37.6-290.6,25.7c-97.4-11.9-192.1-40-285.2-71.1
	c-107.2-35.9-214.6-77.5-308.7-141.4c-23-15.6-45.2-32.6-66-51.1c-9.1-8.1-22.7-26.6-35.9-40.4v60c13.2,13.8,26.8,32.3,35.9,40.4
	c20.8,18.5,43,35.4,66,51.1c94,63.9,201.4,105.5,308.7,141.4c93.1,31.1,187.8,59.2,285.2,71.1c97.4,11.9,198.2,7.2,290.6-25.7
	c82.8-29.5,157.3-81.8,213.6-149.1v-60C1143.6,1676.9,1069.2,1729.2,986.4,1758.7z"/>
<path class="st2" d="M1200,1920v-250.5c-56.4,67.4-130.8,119.6-213.6,149.1c-92.4,32.9-193.2,37.6-290.6,25.7
	c-97.4-11.9-192.1-40-285.2-71.1c-107.2-35.9-214.6-77.5-308.7-141.4c-23-15.6-45.2-32.6-66-51.1c-9.1-8.1-22.7-26.6-35.9-40.4V1920
	H1200z"/>
<path class="st2" d="M1200,0v385.2c-90.1-26.3-175.5-68.9-250.5-125.4c-65.4-49.3-124.4-109.6-199.8-141.7
	C685.4,90.8,613.9,86.3,546,69.4C488.8,55.1,434.2,31.3,384.3,0H1200z"/>
</svg>
